<?xml version="1.0" encoding="UTF-8"?>
<svg id="Laag_1" xmlns="http://www.w3.org/2000/svg" version="1.1" viewBox="0 0 847.63 226.44">
  <!-- Generator: Adobe Illustrator 30.5.1, SVG Export Plug-In . SVG Version: 2.1.4 Build 3)  -->
  <defs>
    <style>
      .st0 {
        fill: none;
      }

      .st1 {
        fill: #fbc202;
      }

      .st2 {
        fill: #f8f6f0;
      }
    </style>
  </defs>
  <g>
    <rect class="st0" x="36.62" y="23.57" width="518.26" height="134.16"/>
    <path class="st1" d="M72.57,23.57v114.17h-26.38V23.57h26.38Z"/>
    <path class="st1" d="M164.68,101.02h-59.71c.41,5.35,2.13,9.44,5.17,12.27,3.03,2.83,6.76,4.24,11.19,4.24,6.58,0,11.16-2.78,13.73-8.33h28.08c-1.44,5.66-4.04,10.75-7.79,15.27-3.76,4.53-8.46,8.08-14.12,10.65-5.66,2.57-11.98,3.86-18.98,3.86-8.44,0-15.94-1.8-22.53-5.4-6.58-3.6-11.73-8.74-15.43-15.43-3.7-6.69-5.55-14.5-5.55-23.45s1.82-16.76,5.48-23.45c3.65-6.69,8.77-11.83,15.35-15.43,6.58-3.6,14.14-5.4,22.68-5.4s15.74,1.75,22.22,5.25c6.48,3.5,11.55,8.49,15.2,14.97,3.65,6.48,5.48,14.04,5.48,22.68,0,2.47-.15,5.04-.46,7.71ZM138.14,86.36c0-4.53-1.54-8.12-4.63-10.8-3.09-2.67-6.94-4.01-11.57-4.01s-8.15,1.29-11.19,3.86c-3.04,2.57-4.91,6.22-5.63,10.95h33.02Z"/>
    <path class="st1" d="M306.7,60.44c6.33,6.48,9.49,15.48,9.49,27v50.3h-26.23v-46.75c0-5.55-1.47-9.85-4.4-12.88-2.93-3.03-6.97-4.55-12.11-4.55s-9.18,1.52-12.11,4.55c-2.93,3.04-4.4,7.33-4.4,12.88v46.75h-26.23v-46.75c0-5.55-1.47-9.85-4.4-12.88-2.93-3.03-6.97-4.55-12.11-4.55s-9.18,1.52-12.11,4.55c-2.93,3.04-4.4,7.33-4.4,12.88v46.75h-26.38V51.65h26.38v10.8c2.67-3.6,6.17-6.45,10.49-8.56,4.32-2.11,9.2-3.16,14.66-3.16,6.48,0,12.27,1.39,17.36,4.17,5.09,2.78,9.08,6.74,11.96,11.88,2.98-4.73,7.04-8.59,12.19-11.57,5.14-2.98,10.75-4.47,16.82-4.47,10.7,0,19.21,3.24,25.53,9.72Z"/>
    <path class="st1" d="M343.42,133.58c-6.74-3.6-12.03-8.74-15.89-15.43-3.86-6.69-5.79-14.5-5.79-23.45s1.95-16.64,5.86-23.38c3.91-6.74,9.26-11.9,16.05-15.51,6.79-3.6,14.4-5.4,22.83-5.4s16.05,1.8,22.83,5.4c6.79,3.6,12.14,8.77,16.05,15.51,3.91,6.74,5.86,14.53,5.86,23.38s-1.98,16.64-5.94,23.37c-3.96,6.74-9.36,11.91-16.2,15.51-6.84,3.6-14.48,5.4-22.91,5.4s-16.02-1.8-22.76-5.4ZM379.06,110.59c3.55-3.7,5.32-9,5.32-15.89s-1.72-12.19-5.17-15.89c-3.45-3.7-7.69-5.55-12.73-5.55s-9.41,1.83-12.81,5.48c-3.39,3.65-5.09,8.98-5.09,15.97s1.67,12.19,5.01,15.89c3.34,3.7,7.53,5.55,12.57,5.55s9.33-1.85,12.88-5.55Z"/>
    <path class="st1" d="M494.16,60.52c6.02,6.53,9.03,15.51,9.03,26.92v50.3h-26.23v-46.75c0-5.76-1.49-10.23-4.47-13.42-2.99-3.19-7-4.78-12.04-4.78s-9.05,1.6-12.04,4.78c-2.98,3.19-4.47,7.66-4.47,13.42v46.75h-26.38V51.65h26.38v11.42c2.67-3.8,6.27-6.81,10.8-9.03,4.53-2.21,9.62-3.32,15.28-3.32,10.08,0,18.13,3.27,24.14,9.8Z"/>
  </g>
  <g>
    <rect class="st0" x="512.18" y="52.5" width="399.42" height="127.45"/>
    <path class="st2" d="M521.98,100.18c3.65-6.69,8.74-11.83,15.28-15.43,6.53-3.6,14.01-5.4,22.45-5.4,10.8,0,19.83,2.83,27.08,8.49,7.25,5.66,12.01,13.63,14.27,23.91h-28.08c-2.37-6.58-6.94-9.87-13.73-9.87-4.84,0-8.69,1.88-11.57,5.63-2.88,3.76-4.32,9.13-4.32,16.12s1.44,12.37,4.32,16.12c2.88,3.76,6.74,5.63,11.57,5.63,6.79,0,11.37-3.29,13.73-9.88h28.08c-2.26,10.08-7.05,18-14.35,23.76-7.3,5.76-16.3,8.64-27,8.64-8.43,0-15.92-1.8-22.45-5.4-6.53-3.6-11.62-8.74-15.28-15.43-3.65-6.69-5.48-14.5-5.48-23.45s1.83-16.76,5.48-23.45Z"/>
    <path class="st2" d="M607.15,100.18c3.34-6.69,7.89-11.83,13.66-15.43,5.76-3.6,12.19-5.4,19.29-5.4,6.07,0,11.39,1.23,15.97,3.7,4.58,2.47,8.1,5.71,10.57,9.72v-12.19h26.38v86.09h-26.38v-12.19c-2.57,4.01-6.15,7.25-10.72,9.72-4.58,2.47-9.9,3.7-15.97,3.7-7,0-13.37-1.83-19.13-5.48-5.76-3.65-10.31-8.84-13.66-15.58-3.34-6.74-5.01-14.53-5.01-23.38s1.67-16.61,5.01-23.3ZM661.15,108.05c-3.65-3.8-8.1-5.71-13.35-5.71s-9.7,1.88-13.35,5.63c-3.65,3.76-5.48,8.92-5.48,15.51s1.83,11.8,5.48,15.66c3.65,3.86,8.1,5.79,13.35,5.79s9.69-1.9,13.35-5.71c3.65-3.8,5.48-9,5.48-15.58s-1.83-11.78-5.48-15.58Z"/>
    <path class="st2" d="M741.45,83.05c4.53-2.47,9.82-3.7,15.89-3.7,7.1,0,13.52,1.8,19.29,5.4,5.76,3.6,10.31,8.74,13.65,15.43,3.34,6.69,5.01,14.45,5.01,23.3s-1.67,16.64-5.01,23.38c-3.34,6.74-7.9,11.93-13.65,15.58-5.76,3.65-12.19,5.48-19.29,5.48-5.97,0-11.24-1.23-15.82-3.7-4.58-2.47-8.15-5.66-10.72-9.57v53.08h-26.38v-127.13h26.38v12.19c2.57-4.01,6.12-7.25,10.65-9.72ZM762.98,107.97c-3.65-3.75-8.15-5.63-13.5-5.63s-9.7,1.9-13.35,5.71c-3.65,3.81-5.48,9-5.48,15.58s1.83,11.78,5.48,15.58c3.65,3.81,8.1,5.71,13.35,5.71s9.72-1.93,13.42-5.79c3.7-3.86,5.55-9.08,5.55-15.66s-1.83-11.75-5.48-15.51Z"/>
  </g>
</svg>